<svg width="100" height="100" viewBox="0 0 100 100" fill="none" xmlns="http://www.w3.org/2000/svg">
<g clip-path="url(#clip0_36_2)">
<rect width="100" height="100" rx="20" fill="#3174F2"/>
<rect width="100" height="100" fill="black"/>
<mask id="path-3-inside-1_36_2" fill="white">
<path d="M28.5455 74H12.0455V27.4545H28.6818C33.3636 27.4545 37.3939 28.3864 40.7727 30.25C44.1515 32.0985 46.75 34.7576 48.5682 38.2273C50.4015 41.697 51.3182 45.8485 51.3182 50.6818C51.3182 55.5303 50.4015 59.697 48.5682 63.1818C46.75 66.6667 44.1364 69.3409 40.7273 71.2045C37.3333 73.0682 33.2727 74 28.5455 74ZM21.8864 65.5682H28.1364C31.0455 65.5682 33.4924 65.053 35.4773 64.0227C37.4773 62.9773 38.9773 61.3636 39.9773 59.1818C40.9924 56.9848 41.5 54.1515 41.5 50.6818C41.5 47.2424 40.9924 44.4318 39.9773 42.25C38.9773 40.0682 37.4848 38.4621 35.5 37.4318C33.5152 36.4015 31.0682 35.8864 28.1591 35.8864H21.8864V65.5682Z"/>
</mask>
<path d="M28.5455 74H12.0455V27.4545H28.6818C33.3636 27.4545 37.3939 28.3864 40.7727 30.25C44.1515 32.0985 46.75 34.7576 48.5682 38.2273C50.4015 41.697 51.3182 45.8485 51.3182 50.6818C51.3182 55.5303 50.4015 59.697 48.5682 63.1818C46.75 66.6667 44.1364 69.3409 40.7273 71.2045C37.3333 73.0682 33.2727 74 28.5455 74ZM21.8864 65.5682H28.1364C31.0455 65.5682 33.4924 65.053 35.4773 64.0227C37.4773 62.9773 38.9773 61.3636 39.9773 59.1818C40.9924 56.9848 41.5 54.1515 41.5 50.6818C41.5 47.2424 40.9924 44.4318 39.9773 42.25C38.9773 40.0682 37.4848 38.4621 35.5 37.4318C33.5152 36.4015 31.0682 35.8864 28.1591 35.8864H21.8864V65.5682Z" fill="white"/>
<path d="M12.0455 74H11.0455V75H12.0455V74ZM12.0455 27.4545V26.4545H11.0455V27.4545H12.0455ZM40.7727 30.25L40.2898 31.1256L40.2928 31.1273L40.7727 30.25ZM48.5682 38.2273L47.6824 38.6914L47.684 38.6945L48.5682 38.2273ZM48.5682 63.1818L47.6832 62.7162L47.6816 62.7193L48.5682 63.1818ZM40.7273 71.2045L40.2476 70.3271L40.246 70.328L40.7273 71.2045ZM21.8864 65.5682H20.8864V66.5682H21.8864V65.5682ZM35.4773 64.0227L35.938 64.9103L35.9405 64.909L35.4773 64.0227ZM39.9773 59.1818L39.0695 58.7624L39.0682 58.7652L39.9773 59.1818ZM39.9773 42.25L39.0682 42.6667L39.0706 42.6719L39.9773 42.25ZM35.5 37.4318L35.9607 36.5443V36.5443L35.5 37.4318ZM21.8864 35.8864V34.8864H20.8864V35.8864H21.8864ZM28.5455 74V73H12.0455V74V75H28.5455V74ZM12.0455 74H13.0455V27.4545H12.0455H11.0455V74H12.0455ZM12.0455 27.4545V28.4545H28.6818V27.4545V26.4545H12.0455V27.4545ZM28.6818 27.4545V28.4545C33.2305 28.4545 37.0873 29.3593 40.2898 31.1256L40.7727 30.25L41.2557 29.3744C37.7005 27.4134 33.4967 26.4545 28.6818 26.4545V27.4545ZM40.7727 30.25L40.2928 31.1273C43.4954 32.8794 45.9541 35.3933 47.6824 38.6914L48.5682 38.2273L49.4539 37.7631C47.5459 34.1219 44.8076 31.3176 41.2527 29.3727L40.7727 30.25ZM48.5682 38.2273L47.684 38.6945C49.4256 41.9905 50.3182 45.9741 50.3182 50.6818H51.3182H52.3182C52.3182 45.7228 51.3774 41.4034 49.4523 37.7601L48.5682 38.2273ZM51.3182 50.6818H50.3182C50.3182 55.4051 49.4255 59.4044 47.6832 62.7162L48.5682 63.1818L49.4532 63.6474C51.3776 59.9895 52.3182 55.6556 52.3182 50.6818H51.3182ZM48.5682 63.1818L47.6816 62.7193C45.9539 66.0308 43.4808 68.5596 40.2476 70.3271L40.7273 71.2045L41.2069 72.082C44.7919 70.1222 47.5462 67.3026 49.4548 63.6444L48.5682 63.1818ZM40.7273 71.2045L40.246 70.328C37.0288 72.0946 33.1413 73 28.5455 73V74V75C33.4041 75 37.6379 74.0418 41.2086 72.0811L40.7273 71.2045ZM21.8864 65.5682V66.5682H28.1364V65.5682V64.5682H21.8864V65.5682ZM28.1364 65.5682V66.5682C31.1592 66.5682 33.7745 66.0333 35.938 64.9103L35.4773 64.0227L35.0166 63.1352C33.2104 64.0727 30.9317 64.5682 28.1364 64.5682V65.5682ZM35.4773 64.0227L35.9405 64.909C38.15 63.754 39.8002 61.9682 40.8863 59.5985L39.9773 59.1818L39.0682 58.7652C38.1543 60.759 36.8045 62.2006 35.014 63.1365L35.4773 64.0227ZM39.9773 59.1818L40.8851 59.6013C41.9814 57.2286 42.5 54.2382 42.5 50.6818H41.5H40.5C40.5 54.0649 40.0035 56.7411 39.0695 58.7624L39.9773 59.1818ZM41.5 50.6818H42.5C42.5 47.1547 41.9811 44.1862 40.8839 41.8281L39.9773 42.25L39.0706 42.6719C40.0038 44.6774 40.5 47.3301 40.5 50.6818H41.5ZM39.9773 42.25L40.8863 41.8333C39.8008 39.4648 38.1582 37.685 35.9607 36.5443L35.5 37.4318L35.0393 38.3194C36.8115 39.2393 38.1538 40.6715 39.0682 42.6667L39.9773 42.25ZM35.5 37.4318L35.9607 36.5443C33.7972 35.4212 31.1819 34.8864 28.1591 34.8864V35.8864V36.8864C30.9545 36.8864 33.2331 37.3818 35.0393 38.3194L35.5 37.4318ZM28.1591 35.8864V34.8864H21.8864V35.8864V36.8864H28.1591V35.8864ZM21.8864 35.8864H20.8864V65.5682H21.8864H22.8864V35.8864H21.8864Z" fill="white" mask="url(#path-3-inside-1_36_2)"/>
<path d="M80.2955 40.8409C80.1136 39.0076 79.3333 37.5833 77.9545 36.5682C76.5758 35.553 74.7045 35.0455 72.3409 35.0455C70.7348 35.0455 69.3788 35.2727 68.2727 35.7273C67.1667 36.1667 66.3182 36.7803 65.7273 37.5682C65.1515 38.3561 64.8636 39.25 64.8636 40.25C64.8333 41.0833 65.0076 41.8106 65.3864 42.4318C65.7803 43.053 66.3182 43.5909 67 44.0455C67.6818 44.4848 68.4697 44.8712 69.3636 45.2045C70.2576 45.5227 71.2121 45.7955 72.2273 46.0227L76.4091 47.0227C78.4394 47.4773 80.303 48.0833 82 48.8409C83.697 49.5985 85.1667 50.5303 86.4091 51.6364C87.6515 52.7424 88.6136 54.0455 89.2955 55.5455C89.9924 57.0455 90.3485 58.7652 90.3636 60.7045C90.3485 63.553 89.6212 66.0227 88.1818 68.1136C86.7576 70.1894 84.697 71.803 82 72.9545C79.3182 74.0909 76.0833 74.6591 72.2955 74.6591C68.5379 74.6591 65.2652 74.0833 62.4773 72.9318C59.7045 71.7803 57.5379 70.0758 55.9773 67.8182C54.4318 65.5455 53.6212 62.7348 53.5455 59.3864H63.0682C63.1742 60.947 63.6212 62.25 64.4091 63.2955C65.2121 64.3258 66.2803 65.1061 67.6136 65.6364C68.9621 66.1515 70.4848 66.4091 72.1818 66.4091C73.8485 66.4091 75.2955 66.1667 76.5227 65.6818C77.7652 65.197 78.7273 64.5227 79.4091 63.6591C80.0909 62.7955 80.4318 61.803 80.4318 60.6818C80.4318 59.6364 80.1212 58.7576 79.5 58.0455C78.8939 57.3333 78 56.7273 76.8182 56.2273C75.6515 55.7273 74.2197 55.2727 72.5227 54.8636L67.4545 53.5909C63.5303 52.6364 60.4318 51.1439 58.1591 49.1136C55.8864 47.0833 54.7576 44.3485 54.7727 40.9091C54.7576 38.0909 55.5076 35.6288 57.0227 33.5227C58.553 31.4167 60.6515 29.7727 63.3182 28.5909C65.9848 27.4091 69.0152 26.8182 72.4091 26.8182C75.8636 26.8182 78.8788 27.4091 81.4545 28.5909C84.0455 29.7727 86.0606 31.4167 87.5 33.5227C88.9394 35.6288 89.6818 38.0682 89.7273 40.8409H80.2955Z" fill="white"/>
</g>
<defs>
<clipPath id="clip0_36_2">
<rect width="100" height="100" rx="20" fill="white"/>
</clipPath>
</defs>
</svg>
